ffmpeg started on 2025-05-26 at 18:19:39
Report written to "D:\Convert\FFMetrics\reports\psnr_report-6.txt"
Log level: 32
Command line:
ffmpeg -hide_banner -nostdin -i "G:\\\xc0\xed\xe8\xec\xe5\\\xce\xed\xe3\xee\xe8\xed\xe3\xe8\\!_34_\xc2\xe5\xf1\xed\xe0_2024\\DreamCast\\\xc4\xe2\xe5 \xf1\xf2\xee\xf0\xee\xed\xfb \xf1\xfd\xe9\xfe \xf0\xe0\xe4\xe8\xee\\[DC] Seiyuu Radio no Uraomote - 09_Telegram_HEVC.mkv" -i "G:\\\xc0\xed\xe8\xec\xe5\\\xce\xed\xe3\xee\xe8\xed\xe3\xe8\\!_34_\xc2\xe5\xf1\xed\xe0_2024\\DreamCast\\\xc4\xe2\xe5 \xf1\xf2\xee\xf0\xee\xed\xfb \xf1\xfd\xe9\xfe \xf0\xe0\xe4\xe8\xee\\[DC] Seiyuu Radio no Uraomote - 09_Telegram.mp4" -lavfi "[0:v]settb=AVTB,setpts=PTS-STARTPTS,format=pix_fmts=yuv420p10,fps=24000/1001,scale=1920:1080:flags=bicubic[main];[1:v]settb=AVTB,setpts=PTS-STARTPTS,format=pix_fmts=yuv420p,fps=24000/1001,scale=1920:1080:flags=bicubic[ref];[main][ref]psnr=eof_action=endall:stats_file='D\\:/Convert/FFMetrics/logs/psnr_logfile-6.txt'" -f null -
Input #0, matroska,webm, from 'G:\Аниме\Онгоинги\!_34_Весна_2024\DreamCast\Две стороны сэйю радио\[DC] Seiyuu Radio no Uraomote - 09_Telegram_HEVC.mkv':
  Metadata:
    COMPATIBLE_BRANDS: isomiso2avc1mp41
    MAJOR_BRAND     : isom
    MINOR_VERSION   : 512
    ENCODER         : Lavf61.7.100
  Duration: 00:23:46.65, start: -0.021000, bitrate: 910 kb/s
  Stream #0:0: Video: hevc (Main 10), yuv420p10le(tv, bt709, progressive), 1920x1080 [SAR 1:1 DAR 16:9], 23.98 fps, 23.98 tbr, 1k tbn (default)
      Metadata:
        HANDLER_NAME    : VideoHandler
        VENDOR_ID       : [0][0][0][0]
        ENCODER         : Lavc61.19.100 libx265
        BPS             : 712931
        DURATION        : 00:23:46.549708333
        NUMBER_OF_FRAMES: 34203
        NUMBER_OF_BYTES : 127129044
        _STATISTICS_WRITING_APP: mkvpropedit v66.0.0 ('Josie') 64-bit
        _STATISTICS_WRITING_DATE_UTC: 2025-05-26 09:15:00
        _STATISTICS_TAGS: BPS DURATION NUMBER_OF_FRAMES NUMBER_OF_BYTES
  Stream #0:1: Audio: aac (LC), 48000 Hz, stereo, fltp (default)
      Metadata:
        HANDLER_NAME    : SoundHandler
        VENDOR_ID       : [0][0][0][0]
        ENCODER         : Lavc61.19.100 aac
        BPS             : 193505
        DURATION        : 00:23:46.645000000
        NUMBER_OF_FRAMES: 66875
        NUMBER_OF_BYTES : 34508031
        _STATISTICS_WRITING_APP: mkvpropedit v66.0.0 ('Josie') 64-bit
        _STATISTICS_WRITING_DATE_UTC: 2025-05-26 09:15:00
        _STATISTICS_TAGS: BPS DURATION NUMBER_OF_FRAMES NUMBER_OF_BYTES
Input #1, mov,mp4,m4a,3gp,3g2,mj2, from 'G:\Аниме\Онгоинги\!_34_Весна_2024\DreamCast\Две стороны сэйю радио\[DC] Seiyuu Radio no Uraomote - 09_Telegram.mp4':
  Metadata:
    major_brand     : isom
    minor_version   : 512
    compatible_brands: isomiso2avc1mp41
    encoder         : Lavf60.16.100
  Duration: 00:23:46.62, start: 0.000000, bitrate: 3662 kb/s
  Stream #1:0[0x1](und): Video: h264 (High) (avc1 / 0x31637661), yuv420p(tv, bt709, progressive), 1920x1080 [SAR 1:1 DAR 16:9], 3514 kb/s, 23.98 fps, 23.98 tbr, 24k tbn (default)
      Metadata:
        handler_name    : VideoHandler
        vendor_id       : [0][0][0][0]
        encoder         : Lavc60.31.102 h264_qsv
  Stream #1:1[0x2](und): Audio: aac (HE-AACv2) (mp4a / 0x6134706D), 48000 Hz, stereo, fltp, 144 kb/s (default)
      Metadata:
        handler_name    : SoundHandler
        vendor_id       : [0][0][0][0]
Stream mapping:
  Stream #0:0 (hevc) -> settb:default
  Stream #1:0 (h264) -> settb:default
  psnr:default -> Stream #0:0 (wrapped_avframe)
  Stream #0:1 -> #0:1 (aac (native) -> pcm_s16le (native))
Output #0, null, to 'pipe:':
  Metadata:
    COMPATIBLE_BRANDS: isomiso2avc1mp41
    MAJOR_BRAND     : isom
    MINOR_VERSION   : 512
    encoder         : Lavf61.7.100
  Stream #0:0: Video: wrapped_avframe, yuv420p10le(tv, bt709, progressive), 1920x1080 [SAR 1:1 DAR 16:9], q=2-31, 200 kb/s, 23.98 fps, 23.98 tbn
      Metadata:
        encoder         : Lavc61.19.100 wrapped_avframe
  Stream #0:1: Audio: pcm_s16le, 48000 Hz, stereo, s16, 1536 kb/s (default)
      Metadata:
        HANDLER_NAME    : SoundHandler
        VENDOR_ID       : [0][0][0][0]
        _STATISTICS_TAGS: BPS DURATION NUMBER_OF_FRAMES NUMBER_OF_BYTES
        BPS             : 193505
        DURATION        : 00:23:46.645000000
        NUMBER_OF_FRAMES: 66875
        NUMBER_OF_BYTES : 34508031
        _STATISTICS_WRITING_APP: mkvpropedit v66.0.0 ('Josie') 64-bit
        _STATISTICS_WRITING_DATE_UTC: 2025-05-26 09:15:00
        encoder         : Lavc61.19.100 pcm_s16le
frame=  190 fps=0.0 q=-0.0 size=N/A time=00:00:07.92 bitrate=N/A speed=15.2x    frame=  435 fps=422 q=-0.0 size=N/A time=00:00:18.18 bitrate=N/A speed=17.7x    frame=  690 fps=445 q=-0.0 size=N/A time=00:00:28.77 bitrate=N/A speed=18.5x    frame=  923 fps=445 q=-0.0 size=N/A time=00:00:38.49 bitrate=N/A speed=18.6x    frame= 1167 fps=452 q=-0.0 size=N/A time=00:00:48.67 bitrate=N/A speed=18.9x    frame= 1409 fps=454 q=-0.0 size=N/A time=00:00:58.76 bitrate=N/A speed=18.9x    frame= 1642 fps=455 q=-0.0 size=N/A time=00:01:08.48 bitrate=N/A speed=  19x    frame= 1887 fps=456 q=-0.0 size=N/A time=00:01:18.70 bitrate=N/A speed=  19x    frame= 2083 fps=449 q=-0.0 size=N/A time=00:01:26.87 bitrate=N/A speed=18.7x    frame= 2197 fps=425 q=-0.0 size=N/A time=00:01:31.63 bitrate=N/A speed=17.7x    frame= 2394 fps=422 q=-0.0 size=N/A time=00:01:39.84 bitrate=N/A speed=17.6x    frame= 2600 fps=420 q=-0.0 size=N/A time=00:01:48.44 bitrate=N/A speed=17.5x    frame= 2811 fps=419 q=-0.0 size=N/A time=00:01:57.24 bitrate=N/A speed=17.5x    frame= 3051 fps=422 q=-0.0 size=N/A time=00:02:07.25 bitrate=N/A speed=17.6x    frame= 3248 fps=419 q=-0.0 size=N/A time=00:02:15.46 bitrate=N/A speed=17.5x    frame= 3511 fps=425 q=-0.0 size=N/A time=00:02:26.43 bitrate=N/A speed=17.7x    frame= 3800 fps=433 q=-0.0 size=N/A time=00:02:38.49 bitrate=N/A speed=18.1x    frame= 4075 fps=439 q=-0.0 size=N/A time=00:02:49.96 bitrate=N/A speed=18.3x    frame= 4331 fps=442 q=-0.0 size=N/A time=00:03:00.63 bitrate=N/A speed=18.4x    frame= 4613 fps=447 q=-0.0 size=N/A time=00:03:12.40 bitrate=N/A speed=18.7x    frame= 4905 fps=453 q=-0.0 size=N/A time=00:03:24.57 bitrate=N/A speed=18.9x    frame= 5186 fps=457 q=-0.0 size=N/A time=00:03:36.29 bitrate=N/A speed=  19x    frame= 5442 fps=459 q=-0.0 size=N/A time=00:03:46.97 bitrate=N/A speed=19.1x    frame= 5720 fps=462 q=-0.0 size=N/A time=00:03:58.57 bitrate=N/A speed=19.3x    frame= 5957 fps=462 q=-0.0 size=N/A time=00:04:08.45 bitrate=N/A speed=19.3x    frame= 6237 fps=465 q=-0.0 size=N/A time=00:04:20.13 bitrate=N/A speed=19.4x    frame= 6508 fps=467 q=-0.0 size=N/A time=00:04:31.43 bitrate=N/A speed=19.5x    frame= 6789 fps=470 q=-0.0 size=N/A time=00:04:43.15 bitrate=N/A speed=19.6x    frame= 7022 fps=470 q=-0.0 size=N/A time=00:04:52.87 bitrate=N/A speed=19.6x    frame= 7231 fps=467 q=-0.0 size=N/A time=00:05:01.59 bitrate=N/A speed=19.5x    frame= 7502 fps=469 q=-0.0 size=N/A time=00:05:12.89 bitrate=N/A speed=19.6x    frame= 7784 fps=472 q=-0.0 size=N/A time=00:05:24.65 bitrate=N/A speed=19.7x    frame= 8073 fps=474 q=-0.0 size=N/A time=00:05:36.71 bitrate=N/A speed=19.8x    frame= 8366 fps=477 q=-0.0 size=N/A time=00:05:48.93 bitrate=N/A speed=19.9x    frame= 8627 fps=478 q=-0.0 size=N/A time=00:05:59.81 bitrate=N/A speed=19.9x    frame= 8895 fps=479 q=-0.0 size=N/A time=00:06:10.99 bitrate=N/A speed=  20x    frame= 9161 fps=480 q=-0.0 size=N/A time=00:06:22.09 bitrate=N/A speed=  20x    frame= 9431 fps=481 q=-0.0 size=N/A time=00:06:33.35 bitrate=N/A speed=20.1x    frame= 9708 fps=483 q=-0.0 size=N/A time=00:06:44.90 bitrate=N/A speed=20.1x    frame= 9984 fps=484 q=-0.0 size=N/A time=00:06:56.41 bitrate=N/A speed=20.2x    frame=10239 fps=484 q=-0.0 size=N/A time=00:07:07.05 bitrate=N/A speed=20.2x    frame=10498 fps=484 q=-0.0 size=N/A time=00:07:17.85 bitrate=N/A speed=20.2x    frame=10758 fps=485 q=-0.0 size=N/A time=00:07:28.69 bitrate=N/A speed=20.2x    frame=11041 fps=486 q=-0.0 size=N/A time=00:07:40.50 bitrate=N/A speed=20.3x    frame=11309 fps=487 q=-0.0 size=N/A time=00:07:51.67 bitrate=N/A speed=20.3x    frame=11579 fps=488 q=-0.0 size=N/A time=00:08:02.94 bitrate=N/A speed=20.4x    frame=11775 fps=486 q=-0.0 size=N/A time=00:08:11.11 bitrate=N/A speed=20.3x    frame=12049 fps=487 q=-0.0 size=N/A time=00:08:22.54 bitrate=N/A speed=20.3x    frame=12242 fps=485 q=-0.0 size=N/A time=00:08:30.59 bitrate=N/A speed=20.2x    frame=12419 fps=482 q=-0.0 size=N/A time=00:08:37.97 bitrate=N/A speed=20.1x    frame=12618 fps=480 q=-0.0 size=N/A time=00:08:46.27 bitrate=N/A speed=  20x    frame=12896 fps=481 q=-0.0 size=N/A time=00:08:57.87 bitrate=N/A speed=20.1x    frame=13167 fps=482 q=-0.0 size=N/A time=00:09:09.17 bitrate=N/A speed=20.1x    frame=13433 fps=482 q=-0.0 size=N/A time=00:09:20.26 bitrate=N/A speed=20.1x    frame=13704 fps=483 q=-0.0 size=N/A time=00:09:31.57 bitrate=N/A speed=20.1x    frame=13966 fps=484 q=-0.0 size=N/A time=00:09:42.49 bitrate=N/A speed=20.2x    frame=14239 fps=484 q=-0.0 size=N/A time=00:09:53.88 bitrate=N/A speed=20.2x    frame=14496 fps=485 q=-0.0 size=N/A time=00:10:04.60 bitrate=N/A speed=20.2x    frame=14775 fps=486 q=-0.0 size=N/A time=00:10:16.24 bitrate=N/A speed=20.3x    frame=15056 fps=486 q=-0.0 size=N/A time=00:10:27.96 bitrate=N/A speed=20.3x    frame=15298 fps=486 q=-0.0 size=N/A time=00:10:38.05 bitrate=N/A speed=20.3x    frame=15566 fps=487 q=-0.0 size=N/A time=00:10:49.23 bitrate=N/A speed=20.3x    frame=15822 fps=487 q=-0.0 size=N/A time=00:10:59.90 bitrate=N/A speed=20.3x    frame=16050 fps=486 q=-0.0 size=N/A time=00:11:09.41 bitrate=N/A speed=20.3x    frame=16287 fps=486 q=-0.0 size=N/A time=00:11:19.30 bitrate=N/A speed=20.3x    frame=16535 fps=486 q=-0.0 size=N/A time=00:11:29.64 bitrate=N/A speed=20.3x    frame=16777 fps=486 q=-0.0 size=N/A time=00:11:39.74 bitrate=N/A speed=20.3x    frame=17013 fps=485 q=-0.0 size=N/A time=00:11:49.58 bitrate=N/A speed=20.2x    frame=17258 fps=485 q=-0.0 size=N/A time=00:11:59.80 bitrate=N/A speed=20.2x    frame=17518 fps=485 q=-0.0 size=N/A time=00:12:10.64 bitrate=N/A speed=20.2x    frame=17766 fps=485 q=-0.0 size=N/A time=00:12:20.99 bitrate=N/A speed=20.2x    frame=18039 fps=486 q=-0.0 size=N/A time=00:12:32.37 bitrate=N/A speed=20.3x    frame=18299 fps=486 q=-0.0 size=N/A time=00:12:43.22 bitrate=N/A speed=20.3x    frame=18548 fps=486 q=-0.0 size=N/A time=00:12:53.60 bitrate=N/A speed=20.3x    frame=18773 fps=485 q=-0.0 size=N/A time=00:13:02.99 bitrate=N/A speed=20.2x    frame=19070 fps=486 q=-0.0 size=N/A time=00:13:15.37 bitrate=N/A speed=20.3x    frame=19331 fps=487 q=-0.0 size=N/A time=00:13:26.26 bitrate=N/A speed=20.3x    frame=19621 fps=488 q=-0.0 size=N/A time=00:13:38.35 bitrate=N/A speed=20.3x    frame=19870 fps=487 q=-0.0 size=N/A time=00:13:48.74 bitrate=N/A speed=20.3x    frame=20147 fps=488 q=-0.0 size=N/A time=00:14:00.29 bitrate=N/A speed=20.4x    frame=20418 fps=489 q=-0.0 size=N/A time=00:14:11.60 bitrate=N/A speed=20.4x    frame=20695 fps=489 q=-0.0 size=N/A time=00:14:23.15 bitrate=N/A speed=20.4x    frame=20958 fps=489 q=-0.0 size=N/A time=00:14:34.12 bitrate=N/A speed=20.4x    frame=21207 fps=489 q=-0.0 size=N/A time=00:14:44.50 bitrate=N/A speed=20.4x    frame=21486 fps=490 q=-0.0 size=N/A time=00:14:56.14 bitrate=N/A speed=20.4x    frame=21763 fps=491 q=-0.0 size=N/A time=00:15:07.69 bitrate=N/A speed=20.5x    frame=22027 fps=491 q=-0.0 size=N/A time=00:15:18.70 bitrate=N/A speed=20.5x    frame=22311 fps=491 q=-0.0 size=N/A time=00:15:30.59 bitrate=N/A speed=20.5x    frame=22582 fps=492 q=-0.0 size=N/A time=00:15:41.85 bitrate=N/A speed=20.5x    frame=22845 fps=492 q=-0.0 size=N/A time=00:15:52.82 bitrate=N/A speed=20.5x    frame=23112 fps=492 q=-0.0 size=N/A time=00:16:04.00 bitrate=N/A speed=20.5x    frame=23393 fps=493 q=-0.0 size=N/A time=00:16:15.68 bitrate=N/A speed=20.6x    frame=23654 fps=493 q=-0.0 size=N/A time=00:16:26.56 bitrate=N/A speed=20.6x    frame=23920 fps=493 q=-0.0 size=N/A time=00:16:37.66 bitrate=N/A speed=20.6x    frame=24152 fps=493 q=-0.0 size=N/A time=00:16:47.33 bitrate=N/A speed=20.6x    frame=24413 fps=493 q=-0.0 size=N/A time=00:16:58.22 bitrate=N/A speed=20.6x    frame=24666 fps=493 q=-0.0 size=N/A time=00:17:08.77 bitrate=N/A speed=20.6x    frame=24943 fps=493 q=-0.0 size=N/A time=00:17:20.33 bitrate=N/A speed=20.6x    frame=25207 fps=494 q=-0.0 size=N/A time=00:17:31.34 bitrate=N/A speed=20.6x    frame=25489 fps=494 q=-0.0 size=N/A time=00:17:43.10 bitrate=N/A speed=20.6x    frame=25746 fps=494 q=-0.0 size=N/A time=00:17:53.82 bitrate=N/A speed=20.6x    frame=26005 fps=494 q=-0.0 size=N/A time=00:18:04.62 bitrate=N/A speed=20.6x    frame=26276 fps=494 q=-0.0 size=N/A time=00:18:15.92 bitrate=N/A speed=20.6x    frame=26561 fps=495 q=-0.0 size=N/A time=00:18:27.81 bitrate=N/A speed=20.7x    frame=26826 fps=495 q=-0.0 size=N/A time=00:18:38.86 bitrate=N/A speed=20.7x    frame=27110 fps=496 q=-0.0 size=N/A time=00:18:50.71 bitrate=N/A speed=20.7x    frame=27359 fps=496 q=-0.0 size=N/A time=00:19:01.09 bitrate=N/A speed=20.7x    frame=27593 fps=495 q=-0.0 size=N/A time=00:19:10.85 bitrate=N/A speed=20.7x    frame=27848 fps=495 q=-0.0 size=N/A time=00:19:21.49 bitrate=N/A speed=20.7x    frame=28124 fps=496 q=-0.0 size=N/A time=00:19:33.00 bitrate=N/A speed=20.7x    frame=28396 fps=496 q=-0.0 size=N/A time=00:19:44.34 bitrate=N/A speed=20.7x    frame=28664 fps=496 q=-0.0 size=N/A time=00:19:55.52 bitrate=N/A speed=20.7x    frame=28944 fps=497 q=-0.0 size=N/A time=00:20:07.20 bitrate=N/A speed=20.7x    frame=29191 fps=496 q=-0.0 size=N/A time=00:20:17.50 bitrate=N/A speed=20.7x    frame=29462 fps=497 q=-0.0 size=N/A time=00:20:28.81 bitrate=N/A speed=20.7x    frame=29747 fps=497 q=-0.0 size=N/A time=00:20:40.69 bitrate=N/A speed=20.7x    frame=30030 fps=498 q=-0.0 size=N/A time=00:20:52.50 bitrate=N/A speed=20.8x    frame=30309 fps=498 q=-0.0 size=N/A time=00:21:04.13 bitrate=N/A speed=20.8x    frame=30546 fps=498 q=-0.0 size=N/A time=00:21:14.02 bitrate=N/A speed=20.8x    frame=30810 fps=498 q=-0.0 size=N/A time=00:21:25.03 bitrate=N/A speed=20.8x    frame=31078 fps=498 q=-0.0 size=N/A time=00:21:36.21 bitrate=N/A speed=20.8x    frame=31361 fps=498 q=-0.0 size=N/A time=00:21:48.01 bitrate=N/A speed=20.8x    frame=31607 fps=498 q=-0.0 size=N/A time=00:21:58.27 bitrate=N/A speed=20.8x    frame=31850 fps=498 q=-0.0 size=N/A time=00:22:08.41 bitrate=N/A speed=20.8x    frame=32112 fps=498 q=-0.0 size=N/A time=00:22:19.33 bitrate=N/A speed=20.8x    frame=32332 fps=498 q=-0.0 size=N/A time=00:22:28.51 bitrate=N/A speed=20.8x    frame=32547 fps=497 q=-0.0 size=N/A time=00:22:37.48 bitrate=N/A speed=20.7x    frame=32757 fps=496 q=-0.0 size=N/A time=00:22:46.23 bitrate=N/A speed=20.7x    frame=32995 fps=496 q=-0.0 size=N/A time=00:22:56.16 bitrate=N/A speed=20.7x    frame=33180 fps=495 q=-0.0 size=N/A time=00:23:03.88 bitrate=N/A speed=20.6x    frame=33382 fps=494 q=-0.0 size=N/A time=00:23:12.30 bitrate=N/A speed=20.6x    frame=33616 fps=494 q=-0.0 size=N/A time=00:23:22.06 bitrate=N/A speed=20.6x    frame=33826 fps=493 q=-0.0 size=N/A time=00:23:30.82 bitrate=N/A speed=20.6x    frame=34058 fps=493 q=-0.0 size=N/A time=00:23:40.50 bitrate=N/A speed=20.6x    [Parsed_psnr_10 @ 000002a9ef9c6640] PSNR y:49.229399 u:50.838302 v:50.813254 average:49.699198 min:38.895923 max:inf
[out#0/null @ 000002a9e24e3b80] video:14697KiB audio:267500KiB subtitle:0KiB other streams:0KiB global headers:0KiB muxing overhead: unknown
frame=34203 fps=493 q=-0.0 Lsize=N/A time=00:23:46.55 bitrate=N/A speed=20.6x    
